<svg width="24.000000" height="24.000000" viewBox="0 0 24 24" fill="none" xmlns="http://www.w3.org/2000/svg" xmlns:xlink="http://www.w3.org/1999/xlink">
	<desc>
			Created with Pixso.
	</desc>
	<defs>
		<clipPath id="clip5_86783">
			<rect id="Icon" width="24.000000" height="24.000000" fill="white" fill-opacity="0"/>
		</clipPath>
	</defs>
	<g clip-path="url(#clip5_86783)">
		<path id="Subtract" d="M8.60303 3.79883C9.42725 2.85083 10.6436 2.25 12 2.25C13.3564 2.25 14.5728 2.85083 15.397 3.79858C16.6499 3.71118 17.9351 4.14624 18.8945 5.10547C19.854 6.06494 20.2891 7.3501 20.2017 8.60327C21.1494 9.42725 21.75 10.6436 21.75 12C21.75 13.3567 21.1489 14.573 20.2012 15.3972C20.2886 16.6501 19.8535 17.9351 18.894 18.8943C17.9351 19.8535 16.6499 20.2886 15.397 20.2012C14.5728 21.1492 13.3564 21.75 12 21.75C10.6436 21.75 9.42725 21.1492 8.60303 20.2014C7.3501 20.2891 6.06494 19.854 5.10547 18.8945C4.146 17.9351 3.71094 16.6499 3.79834 15.3967C2.85059 14.5728 2.25 13.3564 2.25 12C2.25 10.6433 2.85107 9.42725 3.79834 8.60303C3.71094 7.3501 4.146 6.06519 5.10547 5.10571C6.06494 4.14648 7.3501 3.71118 8.60303 3.79883ZM15.6104 10.186C15.8511 9.84888 15.7729 9.38037 15.436 9.13965C15.0986 8.89893 14.6304 8.97705 14.3896 9.31396L11.1543 13.8438L9.53027 12.2197C9.2373 11.9268 8.7627 11.9268 8.46973 12.2197C8.17676 12.5125 8.17676 12.9875 8.46973 13.2803L10.7197 15.5303C10.8755 15.6863 11.0923 15.7656 11.312 15.7476C11.5317 15.7292 11.7319 15.6152 11.8604 15.436L15.6104 10.186Z" fill="#CAFF33" fill-opacity="1.000000" fill-rule="evenodd"/>
	</g>
</svg>
