<svg width="52.000000" height="52.000000" viewBox="0 0 52 52" fill="none" xmlns="http://www.w3.org/2000/svg" xmlns:xlink="http://www.w3.org/1999/xlink">
	<desc>
			Created with Pixso.
	</desc>
	<defs>
		<clipPath id="clip11_89143">
			<rect id="Icon" width="24.000000" height="24.000000" transform="translate(14.000000 14.000000)" fill="white" fill-opacity="0"/>
		</clipPath>
	</defs>
	<rect id="Button" rx="26.000000" width="52.000000" height="52.000000" fill="#CAFF33" fill-opacity="1.000000"/>
	<rect id="Icon" width="24.000000" height="24.000000" transform="translate(14.000000 14.000000)" fill="#FFFFFF" fill-opacity="0"/>
	<g clip-path="url(#clip11_89143)">
		<path id="Vector" d="M38 26C38 19.3726 32.6274 14 26 14C19.3726 14 14 19.3726 14 26C14 31.9895 18.3882 36.9541 24.125 37.8542L24.125 29.4688L21.0781 29.4688L21.0781 26L24.125 26L24.125 23.3562C24.125 20.3486 25.9165 18.6875 28.6577 18.6875C29.9702 18.6875 31.3438 18.9219 31.3438 18.9219L31.3438 21.875L29.8306 21.875C28.3398 21.875 27.875 22.8 27.875 23.75L27.875 26L31.2031 26L30.6709 29.4688L27.875 29.4688L27.875 37.8542C33.6118 36.9541 38 31.9895 38 26Z" fill="#262626" fill-opacity="1.000000" fill-rule="nonzero"/>
	</g>
</svg>
