<svg width="417.948242" height="382.726562" viewBox="0 0 417.948 382.727" fill="none" xmlns="http://www.w3.org/2000/svg" xmlns:xlink="http://www.w3.org/1999/xlink">
	<desc>
			Created with Pixso.
	</desc>
	<defs>
		<linearGradient id="paint_linear_5_86808_0" x1="345.375031" y1="-16.843521" x2="163.563095" y2="298.340759" gradientUnits="userSpaceOnUse">
			<stop offset="0.110000" stop-color="#CAFF33"/>
			<stop offset="1.000000" stop-color="#191919" stop-opacity="0.000000"/>
		</linearGradient>
		<linearGradient id="paint_linear_5_86809_0" x1="284.765564" y1="144.499115" x2="133.621155" y2="406.537994" gradientUnits="userSpaceOnUse">
			<stop offset="0.110000" stop-color="#CAFF33"/>
			<stop offset="1.000000" stop-color="#191919" stop-opacity="0.000000"/>
		</linearGradient>
		<linearGradient id="paint_linear_5_86810_0" x1="351.898224" y1="185.312256" x2="278.523956" y2="312.521667" gradientUnits="userSpaceOnUse">
			<stop offset="0.110000" stop-color="#CAFF33"/>
			<stop offset="1.000000" stop-color="#191919" stop-opacity="0.000000"/>
		</linearGradient>
		<linearGradient id="paint_linear_5_86811_0" x1="219.528107" y1="181.975952" x2="146.153839" y2="309.169006" gradientUnits="userSpaceOnUse">
			<stop offset="0.110000" stop-color="#CAFF33"/>
			<stop offset="1.000000" stop-color="#191919" stop-opacity="0.000000"/>
		</linearGradient>
		<linearGradient id="paint_linear_5_86812_0" x1="164.048126" y1="17.455688" x2="90.673882" y2="144.648788" gradientUnits="userSpaceOnUse">
			<stop offset="0.110000" stop-color="#CAFF33"/>
			<stop offset="1.000000" stop-color="#191919" stop-opacity="0.000000"/>
		</linearGradient>
		<linearGradient id="paint_linear_5_86813_0" x1="369.322815" y1="94.665131" x2="332.094421" y2="159.216232" gradientUnits="userSpaceOnUse">
			<stop offset="0.110000" stop-color="#CAFF33"/>
			<stop offset="1.000000" stop-color="#191919" stop-opacity="0.000000"/>
		</linearGradient>
		<linearGradient id="paint_linear_5_86814_0" x1="188.687286" y1="141.090408" x2="151.449493" y2="205.641495" gradientUnits="userSpaceOnUse">
			<stop offset="0.110000" stop-color="#CAFF33"/>
			<stop offset="1.000000" stop-color="#191919" stop-opacity="0.000000"/>
		</linearGradient>
		<linearGradient id="paint_linear_5_86815_0" x1="411.974426" y1="181.218582" x2="374.736633" y2="245.769669" gradientUnits="userSpaceOnUse">
			<stop offset="0.110000" stop-color="#CAFF33"/>
			<stop offset="1.000000" stop-color="#191919" stop-opacity="0.000000"/>
		</linearGradient>
		<linearGradient id="paint_linear_5_86816_0" x1="260.218048" y1="-1.354267" x2="222.980255" y2="63.180492" gradientUnits="userSpaceOnUse">
			<stop offset="0.110000" stop-color="#CAFF33"/>
			<stop offset="1.000000" stop-color="#191919" stop-opacity="0.000000"/>
		</linearGradient>
		<linearGradient id="paint_linear_5_86817_0" x1="199.864151" y1="53.547440" x2="48.719742" y2="315.586304" gradientUnits="userSpaceOnUse">
			<stop offset="0.110000" stop-color="#CAFF33"/>
			<stop offset="1.000000" stop-color="#191919" stop-opacity="0.000000"/>
		</linearGradient>
	</defs>
	<g opacity="0.400000">
		<path id="Vector" d="M297.93 2.79248L374.541 0L371.764 76.6404L358.993 76.1934L360.947 22.6472L113.988 269.7L104.958 260.666L351.931 13.5996L298.391 15.5542L297.93 2.79248Z" fill="url(#paint_linear_5_86808_0)" fill-opacity="1.000000" fill-rule="nonzero"/>
		<path id="Vector" d="M245.702 171.446L245.325 160.834L309.012 158.502L306.709 222.227L296.088 221.85L297.721 177.338L92.4102 382.727L84.9014 375.215L290.226 169.812L245.702 171.446Z" fill="url(#paint_linear_5_86809_0)" fill-opacity="1.000000" fill-rule="nonzero"/>
		<path id="Vector" d="M332.935 198.394L332.754 193.241L363.669 192.11L362.552 223.051L357.402 222.87L358.184 201.256L258.516 300.962L254.873 297.318L354.541 197.612L332.935 198.394Z" fill="url(#paint_linear_5_86810_0)" fill-opacity="1.000000" fill-rule="nonzero"/>
		<path id="Vector" d="M200.565 195.056L200.384 189.904L231.299 188.773L230.182 219.7L225.032 219.519L225.813 197.919L126.146 297.611L122.502 293.967L222.185 194.26L200.565 195.056Z" fill="url(#paint_linear_5_86811_0)" fill-opacity="1.000000" fill-rule="nonzero"/>
		<path id="Vector" d="M145.085 30.5361L144.904 25.3838L175.819 24.2529L174.688 55.1799L169.538 54.9983L170.333 33.3984L70.6655 133.091L67.0225 129.447L166.691 29.7402L145.085 30.5361Z" fill="url(#paint_linear_5_86812_0)" fill-opacity="1.000000" fill-rule="nonzero"/>
		<path id="Vector" d="M359.705 101.298L359.607 98.6873L375.295 98.1147L374.723 113.809L372.113 113.725L372.518 102.75L321.937 153.351L320.094 151.493L370.661 100.893L359.705 101.298Z" fill="url(#paint_linear_5_86813_0)" fill-opacity="1.000000" fill-rule="nonzero"/>
		<path id="Vector" d="M179.057 147.723L178.973 145.113L194.661 144.54L194.089 160.234L191.479 160.15L191.87 149.176L141.303 199.776L139.446 197.919L190.027 147.333L179.057 147.723Z" fill="url(#paint_linear_5_86814_0)" fill-opacity="1.000000" fill-rule="nonzero"/>
		<path id="Vector" d="M402.344 187.852L402.26 185.241L417.948 184.668L417.376 200.362L414.766 200.278L415.157 189.304L364.59 239.904L362.733 238.047L413.314 187.461L402.344 187.852Z" fill="url(#paint_linear_5_86815_0)" fill-opacity="1.000000" fill-rule="nonzero"/>
		<path id="Vector" d="M250.587 5.27783L250.504 2.66699L266.192 2.09448L265.62 17.7883L263.009 17.6907L263.4 6.72998L212.833 57.3162L210.977 55.4731L261.558 4.87305L250.587 5.27783Z" fill="url(#paint_linear_5_86816_0)" fill-opacity="1.000000" fill-rule="nonzero"/>
		<path id="Vector" d="M211.187 130.899L212.805 86.3862L7.50879 291.775L0 284.263L205.324 78.8604L160.801 80.4941L160.424 69.8687L224.111 67.5508L221.808 131.276L211.187 130.899Z" fill="url(#paint_linear_5_86817_0)" fill-opacity="1.000000" fill-rule="nonzero"/>
	</g>
</svg>
