<svg width="52.000000" height="52.000000" viewBox="0 0 52 52" fill="none" xmlns="http://www.w3.org/2000/svg" xmlns:xlink="http://www.w3.org/1999/xlink">
	<desc>
			Created with Pixso.
	</desc>
	<defs>
		<clipPath id="clip11_89149">
			<rect id="Icon" width="24.000000" height="24.000000" transform="translate(14.000000 14.000000)" fill="white" fill-opacity="0"/>
		</clipPath>
	</defs>
	<rect id="Button" rx="26.000000" width="52.000000" height="52.000000" fill="#CAFF33" fill-opacity="1.000000"/>
	<rect id="Icon" width="24.000000" height="24.000000" transform="translate(14.000000 14.000000)" fill="#FFFFFF" fill-opacity="0"/>
	<g clip-path="url(#clip11_89149)">
		<path id="Vector" d="M36.2236 14L15.772 14C14.792 14 14 14.7734 14 15.7297L14 36.2656C14 37.2219 14.792 38 15.772 38L36.2236 38C37.2031 38 38 37.2219 38 36.2703L38 15.7297C38 14.7734 37.2031 14 36.2236 14ZM21.1201 34.4517L17.5576 34.4517L17.5576 22.9954L21.1201 22.9954L21.1201 34.4517ZM19.3389 21.4343C18.1953 21.4343 17.272 20.511 17.272 19.3718C17.272 18.2329 18.1953 17.3093 19.3389 17.3093C20.478 17.3093 21.4014 18.2329 21.4014 19.3718C21.4014 20.5063 20.478 21.4343 19.3389 21.4343ZM34.4517 34.4517L30.8936 34.4517L30.8936 28.8828C30.8936 27.5562 30.8701 25.8452 29.042 25.8452C27.1904 25.8452 26.9092 27.2937 26.9092 28.7891L26.9092 34.4517L23.3564 34.4517L23.3564 22.9954L26.7686 22.9954L26.7686 24.561L26.8154 24.561C27.2891 23.6609 28.4517 22.7095 30.1812 22.7095C33.7861 22.7095 34.4517 25.0813 34.4517 28.1655L34.4517 34.4517Z" fill="#262626" fill-opacity="1.000000" fill-rule="nonzero"/>
	</g>
</svg>
