<svg width="155.833496" height="40.500000" viewBox="0 0 155.833 40.5" fill="none" xmlns="http://www.w3.org/2000/svg" xmlns:xlink="http://www.w3.org/1999/xlink">
	<desc>
			Created with Pixso.
	</desc>
	<defs/>
	<path id="shape-30" d="M36.667 13.3333L30 20L30 10L20 10L26.667 3.33325L36.667 3.33325L36.667 13.3333ZM10 20L20 10L30 20L20 30L10 20ZM10 20L3.3335 13.3333L3.3335 3.33325L13.3335 3.33325L20 10L10 10L10 20ZM10 20L3.3335 26.6665L3.3335 36.6665L13.3335 36.6665L20 30L26.667 36.6665L36.667 36.6665L36.667 26.6665L30 20L30 30L10 30L10 20Z" fill="#CAFF33" fill-opacity="1.000000" fill-rule="evenodd"/>
	<path id="YourBanK" d="M59.3535 11.3333L53.2085 22.1841L53.2085 29.3323L50.312 29.3323L50.312 22.1841L44.167 11.3333L47.4663 11.3333L51.7729 19.3042L56.0542 11.3333L59.3535 11.3333ZM107.166 19.9985C107.938 20.4099 108.542 20.9756 108.979 21.6956C109.416 22.4155 109.634 23.2468 109.634 24.1897C109.634 25.6638 109.122 26.8896 108.098 27.8667C107.073 28.8438 105.822 29.3323 104.345 29.3323L96.7896 29.3323L96.7896 11.3333L103.791 11.3333C105.235 11.3333 106.452 11.8132 107.443 12.7732C108.45 13.7161 108.954 14.8987 108.954 16.3215C108.954 17.8816 108.358 19.1072 107.166 19.9985ZM155.833 29.3323L152.383 29.3323L145.432 20.77L145.432 29.3323L142.536 29.3323L142.536 11.3333L145.432 11.3333L145.432 19.4072L152.131 11.3333L155.582 11.3333L148.455 20.1013L155.833 29.3323ZM103.791 14.1104L99.6855 14.1104L99.6855 18.8416L103.791 18.8416C104.429 18.8416 104.966 18.6187 105.403 18.1729C105.839 17.71 106.058 17.1443 106.058 16.4758C106.058 15.8074 105.839 15.2502 105.403 14.8044C104.966 14.3416 104.429 14.1104 103.791 14.1104ZM64.5083 29.6665C62.6616 29.6665 61.0918 29.0151 59.7988 27.7124Q58.9492 26.8564 58.4722 25.8279Q57.8594 24.5081 57.8594 22.9041Q57.8594 21.3 58.4722 19.9805Q58.9492 18.9517 59.7988 18.0957Q60.748 17.1394 61.896 16.6511Q63.0938 16.1416 64.5083 16.1416Q66.0073 16.1416 67.2529 16.7034Q68.3301 17.1895 69.2178 18.0957C70.5107 19.3984 71.1572 21.0012 71.1572 22.9041C71.1572 24.8069 70.5107 26.4097 69.2178 27.7124Q68.3301 28.6189 67.2529 29.1047Q66.0073 29.6665 64.5083 29.6665ZM122.081 16.4758L124.801 16.4758L124.801 29.3323L122.081 29.3323L122.081 27.481C121.057 28.938 119.588 29.6665 117.674 29.6665C115.944 29.6665 114.467 29.0151 113.241 27.7124C112.016 26.3926 111.403 24.7898 111.403 22.9041C111.403 21.0012 112.016 19.3984 113.241 18.0957C114.467 16.793 115.944 16.1416 117.674 16.1416C119.588 16.1416 121.057 16.8616 122.081 18.3015L122.081 16.4758ZM134.595 16.1416C136.039 16.1416 137.206 16.613 138.096 17.5559C138.986 18.4985 139.431 19.7927 139.431 21.4385L139.431 29.3323L136.711 29.3323L136.711 21.7212C136.711 20.7612 136.459 20.0242 135.955 19.51C135.452 18.9956 134.763 18.7385 133.89 18.7385Q132.909 18.7385 132.187 19.1709Q131.852 19.3711 131.573 19.6643C130.985 20.2642 130.691 21.1899 130.691 22.4412L130.691 29.3323L127.972 29.3323L127.972 16.4758L130.691 16.4758L130.691 18.1216C131.514 16.8015 132.815 16.1416 134.595 16.1416ZM90.7246 18.6357Q91.1655 17.6145 91.9375 17.0295Q92.9727 16.2444 94.6035 16.2444L94.6035 19.2529C93.5625 19.1843 92.6558 19.4414 91.8833 20.0242C91.1108 20.5898 90.7246 21.5327 90.7246 22.8525L90.7246 29.3323L88.0049 29.3323L88.0049 16.4758L90.7246 16.4758L90.7246 18.6357ZM82.104 16.4758L84.8242 16.4758L84.8242 29.3323L82.104 29.3323L82.104 27.6868Q81.6606 28.3979 81.0322 28.8535Q79.9111 29.6665 78.2007 29.6665C76.7563 29.6665 75.5898 29.1951 74.6997 28.2524C73.8101 27.3096 73.3647 26.0154 73.3647 24.3696L73.3647 16.4758L76.085 16.4758L76.085 24.0869C76.085 25.0469 76.3369 25.7839 76.8403 26.2981C77.3442 26.8125 78.0327 27.0696 78.9058 27.0696C79.8628 27.0696 80.6353 26.7695 81.2227 26.1697C81.8105 25.5525 82.104 24.6182 82.104 23.3669L82.104 16.4758ZM115.256 25.8611C116.012 26.6326 116.96 27.0181 118.102 27.0181C119.244 27.0181 120.192 26.6326 120.948 25.8611C121.704 25.0725 122.081 24.0869 122.081 22.9041C122.081 21.7212 121.704 20.7441 120.948 19.9729C120.192 19.1843 119.244 18.79 118.102 18.79C116.96 18.79 116.012 19.1843 115.256 19.9729C114.5 20.7441 114.123 21.7212 114.123 22.9041C114.123 24.0869 114.5 25.0725 115.256 25.8611ZM61.7129 25.8096Q62.2305 26.3381 62.8589 26.6252Q63.6055 26.9668 64.5083 26.9668C65.6167 26.9668 66.5483 26.5811 67.3037 25.8096Q67.7202 25.3848 67.9834 24.8801Q68.4375 24.0105 68.4375 22.9041Q68.4375 21.7976 67.9834 20.9282Q67.7202 20.4233 67.3037 19.9985C66.5483 19.2271 65.6167 18.8416 64.5083 18.8416Q63.6055 18.8416 62.8589 19.1829Q62.2305 19.47 61.7129 19.9985Q61.2964 20.4233 61.0332 20.9282Q60.5796 21.7976 60.5796 22.9041Q60.5796 24.0105 61.0332 24.8801Q61.2964 25.3848 61.7129 25.8096ZM104.345 26.5554C105.017 26.5554 105.579 26.3154 106.032 25.8354C106.502 25.3381 106.737 24.7383 106.737 24.0354C106.737 23.3325 106.502 22.7412 106.032 22.2612Q105.69 21.8865 105.266 21.7Q104.846 21.5156 104.345 21.5156L99.6855 21.5156L99.6855 26.5554L104.345 26.5554Z" fill="#FFFFFF" fill-opacity="1.000000" fill-rule="evenodd"/>
</svg>
