<svg width="24.000000" height="24.000000" viewBox="0 0 24 24" fill="none" xmlns="http://www.w3.org/2000/svg" xmlns:xlink="http://www.w3.org/1999/xlink">
	<desc>
			Created with Pixso.
	</desc>
	<defs>
		<clipPath id="clip11_89129">
			<rect id="Icon" width="24.000000" height="24.000000" fill="white" fill-opacity="0"/>
		</clipPath>
	</defs>
	<g clip-path="url(#clip11_89129)">
		<path id="Subtract" d="M22.5 6.75L22.5 6.90771L12.7861 12.8855C12.3042 13.1824 11.6958 13.1824 11.2139 12.8855L1.5 6.90771L1.5 6.75C1.5 5.09326 2.84326 3.75 4.5 3.75L19.5 3.75C21.1567 3.75 22.5 5.09326 22.5 6.75ZM1.5 17.25L1.5 8.66919L10.4277 14.1631C11.3921 14.7563 12.6079 14.7563 13.5723 14.1631L22.5 8.66919L22.5 17.25C22.5 18.9067 21.1567 20.25 19.5 20.25L4.5 20.25C2.84326 20.25 1.5 18.9067 1.5 17.25Z" fill="#CAFF33" fill-opacity="1.000000" fill-rule="evenodd"/>
	</g>
</svg>
