<svg width="24.000000" height="24.000000" viewBox="0 0 24 24" fill="none" xmlns="http://www.w3.org/2000/svg" xmlns:xlink="http://www.w3.org/1999/xlink">
	<desc>
			Created with Pixso.
	</desc>
	<defs>
		<clipPath id="clip11_89133">
			<rect id="Icon" width="24.000000" height="24.000000" fill="white" fill-opacity="0"/>
		</clipPath>
	</defs>
	<g clip-path="url(#clip11_89133)">
		<path id="Vector (Stroke)" d="M1.5 4.5C1.5 2.84326 2.84326 1.5 4.5 1.5L5.87158 1.5C6.73193 1.5 7.48193 2.08545 7.69043 2.92017L8.79639 7.34351C8.97949 8.0752 8.70605 8.84546 8.10254 9.2981L6.80859 10.2683C6.67432 10.3691 6.64551 10.5166 6.68311 10.6196C7.81836 13.7195 10.2803 16.1814 13.3804 17.3169C13.4834 17.3547 13.6309 17.3254 13.7314 17.1912L14.7017 15.8975C15.1543 15.2939 15.9248 15.0205 16.6567 15.2036L21.0796 16.3093C21.9146 16.5181 22.5 17.2681 22.5 18.1284L22.5 19.5C22.5 21.1567 21.1567 22.5 19.5 22.5L17.25 22.5C8.55176 22.5 1.5 15.4485 1.5 6.75L1.5 4.5Z" fill="#CAFF33" fill-opacity="1.000000" fill-rule="evenodd"/>
	</g>
</svg>
