<svg width="24.000000" height="24.000000" viewBox="0 0 24 24" fill="none" xmlns="http://www.w3.org/2000/svg" xmlns:xlink="http://www.w3.org/1999/xlink">
	<desc>
			Created with Pixso.
	</desc>
	<defs>
		<clipPath id="clip11_89137">
			<rect id="Icon" width="24.000000" height="24.000000" fill="white" fill-opacity="0"/>
		</clipPath>
	</defs>
	<g clip-path="url(#clip11_89137)">
		<path id="Subtract" d="M11.5396 22.3511C11.5698 22.3687 11.5938 22.3821 11.6104 22.3916L11.6387 22.407C11.8613 22.5295 12.1377 22.5286 12.3608 22.4075L12.3896 22.3916C12.4062 22.3821 12.4302 22.3687 12.4604 22.3511C12.5205 22.3162 12.6069 22.2649 12.7153 22.1982C12.9326 22.0647 13.2388 21.8677 13.6045 21.6091C14.335 21.093 15.3096 20.3274 16.2866 19.3274C18.2305 17.3369 20.25 14.3462 20.25 10.5C20.25 5.9436 16.5562 2.25 12 2.25C7.44385 2.25 3.75 5.9436 3.75 10.5C3.75 14.3462 5.76953 17.3369 7.71338 19.3274C8.69043 20.3274 9.66504 21.093 10.3955 21.6091C10.7612 21.8677 11.0674 22.0647 11.2847 22.1982C11.3931 22.2649 11.4795 22.3162 11.5396 22.3511ZM12 13.5C13.6567 13.5 15 12.1567 15 10.5C15 8.84326 13.6567 7.5 12 7.5C10.3433 7.5 9 8.84326 9 10.5C9 12.1567 10.3433 13.5 12 13.5Z" fill="#CAFF33" fill-opacity="1.000000" fill-rule="evenodd"/>
	</g>
</svg>
