<svg width="20.809082" height="20.808838" viewBox="0 0 20.8091 20.8088" fill="none" xmlns="http://www.w3.org/2000/svg" xmlns:xlink="http://www.w3.org/1999/xlink">
	<desc>
			Created with Pixso.
	</desc>
	<defs>
		<clipPath id="clip5_83360">
			<rect id="Icon" width="20.808865" height="20.808865" fill="white" fill-opacity="0"/>
		</clipPath>
	</defs>
	<g clip-path="url(#clip5_83360)">
		<path id="Vector (Stroke)" d="M13.7344 2.33008C13.4414 2.646 13.4595 3.13965 13.7754 3.43286L15.9604 5.46216L7.02295 5.46216C6.59229 5.46216 6.24268 5.81152 6.24268 6.24268C6.24268 6.67358 6.59229 7.02295 7.02295 7.02295L15.9604 7.02295L13.7754 9.05225C13.4595 9.34546 13.4414 9.83911 13.7344 10.155C14.0278 10.4707 14.5215 10.489 14.8374 10.1958L18.479 6.81445C18.6377 6.66675 18.728 6.45947 18.728 6.24268C18.728 6.02563 18.6377 5.81836 18.479 5.67065L14.8374 2.28931C14.5215 1.99609 14.0278 2.0144 13.7344 2.33008ZM7.07471 10.6538C6.78174 10.3379 6.2876 10.3196 5.97217 10.6128L2.33057 13.9944C2.17139 14.1418 2.08105 14.3491 2.08105 14.5662C2.08105 14.7832 2.17139 14.9902 2.33057 15.1379L5.97217 18.5193C6.2876 18.8127 6.78174 18.7944 7.07471 18.4785C7.36816 18.1628 7.34961 17.6689 7.03369 17.3757L4.84863 15.3464L13.7861 15.3464C14.2168 15.3464 14.5664 14.9971 14.5664 14.5662C14.5664 14.1353 14.2168 13.7859 13.7861 13.7859L4.84863 13.7859L7.03369 11.7566C7.34961 11.4634 7.36816 10.9695 7.07471 10.6538Z" fill="#1C1C1C" fill-opacity="1.000000" fill-rule="evenodd"/>
	</g>
</svg>
