<svg width="52.000000" height="52.000000" viewBox="0 0 52 52" fill="none" xmlns="http://www.w3.org/2000/svg" xmlns:xlink="http://www.w3.org/1999/xlink">
	<desc>
			Created with Pixso.
	</desc>
	<defs>
		<clipPath id="clip11_89146">
			<rect id="Icon" width="24.000000" height="24.000000" transform="translate(14.000000 14.000000)" fill="white" fill-opacity="0"/>
		</clipPath>
	</defs>
	<rect id="Button" rx="26.000000" width="52.000000" height="52.000000" fill="#CAFF33" fill-opacity="1.000000"/>
	<rect id="Icon" width="24.000000" height="24.000000" transform="translate(14.000000 14.000000)" fill="#FFFFFF" fill-opacity="0"/>
	<g clip-path="url(#clip11_89146)">
		<path id="Vector" d="M21.5503 35.7498C30.6045 35.7498 35.5581 28.2463 35.5581 21.7417C35.5581 21.5308 35.5537 21.3149 35.5444 21.104C36.5078 20.4072 37.3394 19.5439 38 18.5552C37.1025 18.9543 36.1494 19.2151 35.1738 19.3286C36.2012 18.7126 36.9707 17.7451 37.3389 16.6055C36.3726 17.1782 35.3154 17.5823 34.2134 17.8003C33.4707 17.0112 32.4888 16.4888 31.4199 16.3137C30.3506 16.1387 29.2534 16.3208 28.2979 16.8318C27.3423 17.343 26.582 18.1545 26.1338 19.1411C25.686 20.1277 25.5752 21.2344 25.8193 22.29C23.8623 22.1919 21.9478 21.6833 20.2002 20.7979C18.4521 19.9124 16.9097 18.6692 15.6729 17.1492C15.0444 18.2329 14.8521 19.5154 15.1353 20.7358C15.418 21.9563 16.1553 23.0232 17.1963 23.7197C16.4146 23.6948 15.6499 23.4844 14.9658 23.1057L14.9658 23.1665C14.9648 24.304 15.3579 25.4062 16.0781 26.2866C16.7983 27.1667 17.8013 27.7703 18.916 27.9946C18.1919 28.1929 17.4321 28.2217 16.6948 28.0791C17.0093 29.0571 17.6216 29.9126 18.4458 30.5261C19.27 31.1396 20.2651 31.4805 21.2925 31.501C19.5483 32.8708 17.394 33.6138 15.1768 33.6104C14.7832 33.6099 14.3906 33.5857 14 33.5381C16.2529 34.9834 18.8735 35.7512 21.5503 35.7498Z" fill="#262626" fill-opacity="1.000000" fill-rule="nonzero"/>
	</g>
</svg>
